# xmcd
#
# Track frame offsets:
#	150
#	17550
#	34005
#	48495
#	64047
#
# Disc length: 1368 seconds
#
# Revision: 1
# Processed by: cddbd v1.5.2PL0 Copyright (c) Steve Scherf et al.
# Submitted via: audiograbber 1.83.01
#
DISCID=37055605
DTITLE=Trance Angel - On The Beach
DYEAR=2003
DGENRE=Trance
TTITLE0=On The Beach (Original Short Edit)
TTITLE1=At The Sea (Original Short Edit)
TTITLE2=On The Beach (Megara vs. DJ Lee Remix Edit)
TTITLE3=On The Beach (DJ Fed Remix Edit)
TTITLE4=On The Beach (Original Clubmix)
EXTD=
EXTT0=
EXTT1=
EXTT2=
EXTT3=
EXTT4=
PLAYORDER=
